REM DIRINDEX 1\5,1\2\6,1\2\7,1\3\8,1\3\9,1\4\10,1\4\11,1\4\12
REM DIRNAME cjc026,folder01,folder02,folder03,folder04,folder05,folder06,folder07,folder08,folder09,folder10,folder11
TITLE ""
FILE "JE_DB3000_5th_4B_30.mp3" MP3
  TRACK 01 AUDIO
    TITLE "0:"
    INDEX 01 00:00:00
  TRACK 02 AUDIO
    TITLE "6:cjc026_01563"
    INDEX 01 00:00:08
  TRACK 03 AUDIO
    TITLE "0:"
    INDEX 01 00:01:33
  TRACK 04 AUDIO
    TITLE "7:cjc026_01564"
    INDEX 01 00:01:70
  TRACK 05 AUDIO
    TITLE "0:"
    INDEX 01 00:03:04
  TRACK 06 AUDIO
    TITLE "6:cjc026_01565"
    INDEX 01 00:03:39
  TRACK 07 AUDIO
    TITLE "0:"
    INDEX 01 00:04:72
  TRACK 08 AUDIO
    TITLE "7:cjc026_01566"
    INDEX 01 00:05:30
  TRACK 09 AUDIO
    TITLE "0:"
    INDEX 01 00:06:73
  TRACK 10 AUDIO
    TITLE "6:cjc026_01567"
    INDEX 01 00:07:36
  TRACK 11 AUDIO
    TITLE "0:"
    INDEX 01 00:09:02
  TRACK 12 AUDIO
    TITLE "7:cjc026_01568"
    INDEX 01 00:09:37
  TRACK 13 AUDIO
    TITLE "0:"
    INDEX 01 00:11:06
  TRACK 14 AUDIO
    TITLE "6:cjc026_01569"
    INDEX 01 00:11:44
  TRACK 15 AUDIO
    TITLE "0:"
    INDEX 01 00:12:66
  TRACK 16 AUDIO
    TITLE "7:cjc026_01570"
    INDEX 01 00:13:29
  TRACK 17 AUDIO
    TITLE "0:"
    INDEX 01 00:14:59
  TRACK 18 AUDIO
    TITLE "6:cjc026_01571"
    INDEX 01 00:15:19
  TRACK 19 AUDIO
    TITLE "0:"
    INDEX 01 00:16:17
  TRACK 20 AUDIO
    TITLE "7:cjc026_01572"
    INDEX 01 00:16:52
  TRACK 21 AUDIO
    TITLE "0:"
    INDEX 01 00:18:00
  TRACK 22 AUDIO
    TITLE "6:cjc026_01573"
    INDEX 01 00:18:37
  TRACK 23 AUDIO
    TITLE "0:"
    INDEX 01 00:19:46
  TRACK 24 AUDIO
    TITLE "7:cjc026_01574"
    INDEX 01 00:20:06
  TRACK 25 AUDIO
    TITLE "0:"
    INDEX 01 00:21:20
  TRACK 26 AUDIO
    TITLE "6:cjc026_01575"
    INDEX 01 00:21:61
  TRACK 27 AUDIO
    TITLE "0:"
    INDEX 01 00:23:03
  TRACK 28 AUDIO
    TITLE "7:cjc026_01576"
    INDEX 01 00:23:38
  TRACK 29 AUDIO
    TITLE "0:"
    INDEX 01 00:24:63
  TRACK 30 AUDIO
    TITLE "6:cjc026_01577"
    INDEX 01 00:25:25
  TRACK 31 AUDIO
    TITLE "0:"
    INDEX 01 00:26:53
  TRACK 32 AUDIO
    TITLE "7:cjc026_01578"
    INDEX 01 00:27:16
  TRACK 33 AUDIO
    TITLE "0:"
    INDEX 01 00:28:57
  TRACK 34 AUDIO
    TITLE "6:cjc026_01579"
    INDEX 01 00:29:17
  TRACK 35 AUDIO
    TITLE "0:"
    INDEX 01 00:30:50
  TRACK 36 AUDIO
    TITLE "7:cjc026_01580"
    INDEX 01 00:31:13
  TRACK 37 AUDIO
    TITLE "0:"
    INDEX 01 00:32:24
  TRACK 38 AUDIO
    TITLE "6:cjc026_01581"
    INDEX 01 00:32:59
  TRACK 39 AUDIO
    TITLE "0:"
    INDEX 01 00:34:06
  TRACK 40 AUDIO
    TITLE "7:cjc026_01582"
    INDEX 01 00:34:42
  TRACK 41 AUDIO
    TITLE "0:"
    INDEX 01 00:35:64
  TRACK 42 AUDIO
    TITLE "6:cjc026_01583"
    INDEX 01 00:36:24
  TRACK 43 AUDIO
    TITLE "0:"
    INDEX 01 00:37:49
  TRACK 44 AUDIO
    TITLE "7:cjc026_01584"
    INDEX 01 00:38:09
  TRACK 45 AUDIO
    TITLE "0:"
    INDEX 01 00:39:23
  TRACK 46 AUDIO
    TITLE "6:cjc026_01585"
    INDEX 01 00:39:61
  TRACK 47 AUDIO
    TITLE "0:"
    INDEX 01 00:41:32
  TRACK 48 AUDIO
    TITLE "7:cjc026_01586"
    INDEX 01 00:41:70
  TRACK 49 AUDIO
    TITLE "0:"
    INDEX 01 00:43:12
  TRACK 50 AUDIO
    TITLE "6:cjc026_01587"
    INDEX 01 00:43:50
  TRACK 51 AUDIO
    TITLE "0:"
    INDEX 01 00:45:18
  TRACK 52 AUDIO
    TITLE "7:cjc026_01588"
    INDEX 01 00:45:56
  TRACK 53 AUDIO
    TITLE "0:"
    INDEX 01 00:47:01
  TRACK 54 AUDIO
    TITLE "6:cjc026_01589"
    INDEX 01 00:47:39
  TRACK 55 AUDIO
    TITLE "0:"
    INDEX 01 00:49:26
  TRACK 56 AUDIO
    TITLE "7:cjc026_01590"
    INDEX 01 00:49:59
  TRACK 57 AUDIO
    TITLE "0:"
    INDEX 01 00:51:06
  TRACK 58 AUDIO
    TITLE "6:cjc026_01591"
    INDEX 01 00:51:41
  TRACK 59 AUDIO
    TITLE "0:"
    INDEX 01 00:52:69
  TRACK 60 AUDIO
    TITLE "7:cjc026_01592"
    INDEX 01 00:53:29
  TRACK 61 AUDIO
    TITLE "0:"
    INDEX 01 00:54:51
